<?xml version="1.0" encoding="utf-8"?>
<!-- Generator: Adobe Illustrator 16.0.0, SVG Export Plug-In . SVG Version: 6.00 Build 0)  -->
<!DOCTYPE svg PUBLIC "-//W3C//DTD SVG 1.1//EN" "http://www.w3.org/Graphics/SVG/1.1/DTD/svg11.dtd">
<svg version="1.1"
	 id="svg3037" xmlns:dc="http://purl.org/dc/elements/1.1/" xmlns:cc="http://creativecommons.org/ns#" xmlns:rdf="http://www.w3.org/1999/02/22-rdf-syntax-ns#" xmlns:svg="http://www.w3.org/2000/svg" xmlns:sodipodi="http://sodipodi.sourceforge.net/DTD/sodipodi-0.dtd" xmlns:inkscape="http://www.inkscape.org/namespaces/inkscape" sodipodi:docname="camera_font_awesome.svg" inkscape:version="0.48.3.1 r9886"
	 xmlns="http://www.w3.org/2000/svg" xmlns:xlink="http://www.w3.org/1999/xlink" x="0px" y="0px" width="30px" height="30px"
	 viewBox="33.5 57.5 30 30" enable-background="new 33.5 57.5 30 30" xml:space="preserve">
<sodipodi:namedview  inkscape:cy="896" inkscape:cx="960" inkscape:zoom="0.13169643" showgrid="false" guidetolerance="10" gridtolerance="10" objecttolerance="10" bordercolor="#666666" pagecolor="#ffffff" borderopacity="1" id="namedview3043" inkscape:current-layer="svg3037" inkscape:window-maximized="0" inkscape:window-y="25" inkscape:window-x="0" inkscape:window-height="480" inkscape:window-width="640" inkscape:pageopacity="0" inkscape:pageshadow="2">
	</sodipodi:namedview>
<g id="g3039" transform="matrix(1,0,0,-1,15.186441,1413.0508)">
	<path id="path3041" inkscape:connector-curvature="0" d="M33.261,1342.93c0.965,0,1.79-0.343,2.474-1.028
		c0.687-0.686,1.029-1.511,1.029-2.476s-0.343-1.79-1.029-2.477c-0.685-0.685-1.509-1.027-2.474-1.027
		c-0.965,0-1.791,0.343-2.476,1.027c-0.686,0.687-1.028,1.512-1.028,2.477s0.343,1.79,1.028,2.476
		C31.471,1342.587,32.296,1342.93,33.261,1342.93z M41.825,1347.99c0.859,0,1.594-0.305,2.202-0.913s0.912-1.342,0.912-2.202
		v-10.899c0-0.859-0.304-1.594-0.912-2.202c-0.608-0.607-1.343-0.912-2.202-0.912H24.697c-0.86,0-1.594,0.305-2.202,0.912
		c-0.608,0.608-0.913,1.343-0.913,2.202v10.899c0,0.86,0.304,1.594,0.913,2.202c0.608,0.608,1.342,0.913,2.202,0.913h2.725
		l0.621,1.654c0.154,0.397,0.436,0.74,0.845,1.027c0.409,0.288,0.829,0.432,1.259,0.432h6.229c0.43,0,0.85-0.144,1.26-0.432
		c0.409-0.287,0.691-0.63,0.845-1.027l0.62-1.654H41.825z M33.261,1333.976c1.5,0,2.783,0.533,3.85,1.6
		c1.066,1.066,1.6,2.351,1.6,3.851s-0.533,2.783-1.6,3.851c-1.067,1.065-2.351,1.599-3.85,1.599c-1.5,0-2.784-0.533-3.851-1.599
		c-1.066-1.067-1.6-2.351-1.6-3.851s0.533-2.784,1.6-3.851S31.761,1333.976,33.261,1333.976z"/>
</g>
</svg>
