<?xml version="1.0" encoding="utf-8"?>
<!-- Generator: Adobe Illustrator 16.0.0, SVG Export Plug-In . SVG Version: 6.00 Build 0)  -->
<!DOCTYPE svg PUBLIC "-//W3C//DTD SVG 1.1//EN" "http://www.w3.org/Graphics/SVG/1.1/DTD/svg11.dtd">
<svg version="1.1" id="Ebene_1" xmlns="http://www.w3.org/2000/svg" xmlns:xlink="http://www.w3.org/1999/xlink" x="0px" y="0px"
	 width="500px" height="500px" viewBox="0 0 500 500" enable-background="new 0 0 500 500" xml:space="preserve">
<g>
	<g>
		<path fill="#3D3D3D" d="M77.146,304.029c0.679,1.318,1.506,3.465,2.124,5.709c0.88,3.199,0.895,5.412,0.069,7.301
			c-0.602,1.551-1.861,2.729-3.811,3.264c-2.392,0.658-4.923-0.348-6.598-2.695l-0.074,0.02c0.059,2.516-1.132,5.812-4.811,6.824
			c-2.134,0.586-3.985,0.186-5.543-0.732c-2.058-1.293-3.562-3.887-4.675-7.934c-0.607-2.207-0.925-3.941-1.072-5.049
			L77.146,304.029z M55.99,313.291c0.062,0.654,0.278,1.584,0.591,2.725c0.911,3.312,2.964,6.031,6.569,5.039
			c3.385-0.93,3.983-4.221,3.022-7.715l-0.729-2.65L55.99,313.291z M67.873,310.023l0.799,2.906
			c0.931,3.385,3.243,4.885,5.634,4.227c2.907-0.799,3.44-3.32,2.55-6.557c-0.405-1.473-0.748-2.287-1-2.771L67.873,310.023z"/>
		<path fill="#3D3D3D" d="M82.925,323.75c0.952,1.424,2.038,3.578,2.902,5.697c1.341,3.285,1.606,5.648,0.869,7.682
			c-0.569,1.633-1.92,2.967-3.757,3.717c-3.144,1.283-6.035,0.156-7.907-2.006l-0.106,0.043c0.114,2.098-1.135,3.885-3.376,5.459
			c-3.003,2.133-5.069,3.635-5.785,4.504l-1.298-3.18c0.512-0.662,2.345-2.027,5.038-3.91c2.997-2.049,3.714-3.824,2.681-6.658
			l-1.183-2.896l-10.314,4.211l-1.255-3.074L82.925,323.75z M73.335,331.25l1.283,3.143c1.341,3.285,3.993,4.635,6.713,3.523
			c3.073-1.254,3.507-4.027,2.216-7.291c-0.606-1.484-1.18-2.486-1.523-2.922L73.335,331.25z"/>
		<path fill="#3D3D3D" d="M77.94,354.76l-8.354,1.658l-1.69-2.988l26.68-5.057l1.972,3.486L78.49,372.156l-1.747-3.088l5.687-6.373
			L77.94,354.76z M84.349,360.82l5.202-5.836c1.179-1.324,2.32-2.408,3.427-3.473l-0.038-0.066c-1.516,0.42-3.084,0.824-4.689,1.164
			l-7.714,1.471L84.349,360.82z"/>
		<path fill="#3D3D3D" d="M82.419,377.949l20.425-15.621l2.202,2.879l-5.327,14.449c-1.235,3.346-2.482,6.174-3.832,8.742
			l0.077,0.037c2.542-2.328,4.98-4.289,8.163-6.723l8.545-6.535l1.901,2.484l-20.425,15.621l-2.04-2.666l5.404-14.412
			c1.183-3.162,2.474-6.311,3.898-9.033l-0.1-0.068c-2.46,2.123-4.868,4.061-8.262,6.656l-8.728,6.676L82.419,377.949z"/>
		<path fill="#3D3D3D" d="M117.918,381.98c1.658,1.197,3.535,2.715,5.416,4.557c3.406,3.336,5.058,6.502,5.198,9.574
			c0.167,3.102-0.96,6.16-3.869,9.131c-2.936,2.998-6.264,4.543-9.636,4.551c-3.398,0.037-7.14-1.812-10.71-5.309
			c-1.689-1.654-3.026-3.125-4.092-4.436L117.918,381.98z M104.384,400.545c0.493,0.697,1.338,1.578,2.265,2.484
			c5.069,4.965,10.597,4.826,15.454-0.135c4.271-4.305,4.513-9.459-0.501-14.371c-1.227-1.201-2.26-1.998-3.02-2.477
			L104.384,400.545z"/>
		<path fill="#3D3D3D" d="M139.378,401.078l-16.075,20.064l-2.59-2.074l16.074-20.064L139.378,401.078z"/>
		<path fill="#3D3D3D" d="M129.846,426.361l14.018-21.557l3.039,1.975l-0.184,15.398c-0.044,3.566-0.273,6.648-0.685,9.521
			l0.084,0.01c1.616-3.045,3.257-5.709,5.441-9.068l5.865-9.018l2.623,1.705l-14.018,21.557l-2.814-1.83l0.269-15.389
			c0.057-3.377,0.219-6.775,0.65-9.818l-0.117-0.029c-1.608,2.822-3.229,5.455-5.558,9.037l-5.99,9.211L129.846,426.361z"/>
		<path fill="#3D3D3D" d="M172.209,448.471c-1.575-0.143-4.609-0.584-7.758-2.045c-3.53-1.639-6.019-3.889-7.291-7.129
			c-1.107-2.871-0.907-6.562,0.78-10.197c3.264-6.939,10.402-9.811,18.223-6.178c2.699,1.252,4.537,2.82,5.316,3.771l-1.868,2.119
			c-0.989-1.131-2.337-2.305-4.69-3.396c-5.675-2.637-11.017-0.824-13.733,5.023c-2.748,5.918-0.806,11.068,4.627,13.59
			c1.973,0.916,3.451,1.266,4.304,1.242l3.229-6.957l-4.741-2.201l1.125-2.422l7.683,3.566L172.209,448.471z"/>
		<path fill="#3D3D3D" d="M198.974,446.123l-0.682,2.385l-9.061-2.594l0.682-2.385L198.974,446.123z"/>
		<path fill="#3D3D3D" d="M231.539,462.17c-1.542,0.348-4.565,0.857-8.01,0.432c-3.861-0.479-6.92-1.855-9.123-4.549
			c-1.934-2.393-2.875-5.969-2.383-9.943c0.979-7.604,6.892-12.523,15.448-11.465c2.953,0.365,5.183,1.295,6.215,1.961l-1.127,2.59
			c-1.288-0.775-2.931-1.477-5.505-1.797c-6.208-0.768-10.737,2.594-11.529,8.99c-0.801,6.475,2.625,10.779,8.569,11.516
			c2.158,0.268,3.671,0.146,4.476-0.139l0.941-7.609l-5.186-0.641l0.328-2.65l8.404,1.039L231.539,462.17z"/>
		<path fill="#3D3D3D" d="M239.278,438.318c1.673-0.371,4.073-0.602,6.362-0.639c3.548-0.059,5.847,0.553,7.473,1.977
			c1.315,1.123,2.069,2.865,2.102,4.85c0.056,3.395-2.043,5.682-4.736,6.641l0.002,0.115c1.994,0.654,3.207,2.465,3.861,5.125
			c0.898,3.572,1.549,6.041,2.1,7.025l-3.434,0.057c-0.432-0.719-1.04-2.922-1.817-6.113c-0.821-3.535-2.216-4.85-5.231-4.914
			l-3.128,0.051l0.183,11.141l-3.319,0.053L239.278,438.318z M242.79,449.975l3.395-0.055c3.548-0.059,5.767-2.041,5.718-4.979
			c-0.054-3.318-2.481-4.729-5.991-4.709c-1.602,0.025-2.744,0.197-3.275,0.359L242.79,449.975z"/>
		<path fill="#3D3D3D" d="M266.306,454.461l-1.597,8.365l-3.404,0.447l5.32-26.631l3.972-0.521l12.043,24.355l-3.519,0.461
			l-3.774-7.662L266.306,454.461z M274.328,450.793l-3.458-7.012c-0.786-1.59-1.362-3.053-1.935-4.479l-0.075,0.01
			c-0.18,1.562-0.393,3.168-0.682,4.783l-1.529,7.703L274.328,450.793z"/>
		<path fill="#3D3D3D" d="M282.814,434.385c1.482-0.664,3.455-1.416,6.039-2.092c3.174-0.828,5.692-0.697,7.516,0.246
			c1.675,0.824,2.959,2.42,3.538,4.635c0.588,2.252,0.387,4.197-0.531,5.816c-1.226,2.252-3.753,3.898-6.89,4.719
			c-0.96,0.25-1.855,0.445-2.642,0.453l2.604,9.965l-3.211,0.84L282.814,434.385z M289.16,445.541
			c0.749,0.002,1.654-0.156,2.725-0.436c3.876-1.014,5.746-3.512,4.85-6.945c-0.858-3.285-3.599-4.264-7.143-3.338
			c-1.402,0.365-2.443,0.756-2.959,1.049L289.16,445.541z"/>
		<path fill="#3D3D3D" d="M305.15,427.561l4.054,9.965l11.521-4.686l-4.054-9.965l3.11-1.266l9.688,23.818l-3.109,1.266
			l-4.542-11.168l-11.521,4.688l4.543,11.166l-3.075,1.25l-9.688-23.818L305.15,427.561z"/>
		<path fill="#3D3D3D" d="M327.778,417.273l11.992,22.748l-2.937,1.549l-11.992-22.75L327.778,417.273z"/>
		<path fill="#3D3D3D" d="M361.645,425.609c-0.69,1.178-2.405,3.02-5.027,4.723c-6.077,3.949-13.145,3.082-17.737-3.984
			c-4.385-6.75-2.783-14.295,3.9-18.639c2.687-1.744,4.756-2.271,5.741-2.365l0.804,2.707c-1.388,0.174-3.141,0.768-4.932,1.932
			c-5.053,3.283-6.312,8.695-2.634,14.357c3.429,5.275,8.671,6.691,13.916,3.283c1.694-1.102,3.193-2.574,3.959-3.846
			L361.645,425.609z"/>
		<path fill="#3D3D3D" d="M351.394,402.699c1.332-1.551,3.003-3.293,4.997-5.012c3.613-3.113,6.907-4.49,9.982-4.371
			c3.104,0.096,6.057,1.479,8.771,4.629c2.739,3.178,3.998,6.627,3.721,9.986c-0.252,3.391-2.41,6.963-6.196,10.225
			c-1.792,1.545-3.369,2.752-4.766,3.703L351.394,402.699z M368.749,417.758c0.735-0.434,1.686-1.201,2.668-2.047
			c5.375-4.633,5.704-10.154,1.172-15.414c-3.93-4.619-9.046-5.297-14.364-0.715c-1.3,1.121-2.184,2.082-2.724,2.801
			L368.749,417.758z"/>
		<path fill="#3D3D3D" d="M388.931,384.834l-6.691,7.424l6.885,6.207l7.459-8.275l2.068,1.865l-9.681,10.74l-19.099-17.217
			l9.298-10.314l2.068,1.865l-7.075,7.85l6.035,5.439l6.692-7.424L388.931,384.834z"/>
		<path fill="#3D3D3D" d="M399.451,384.555c1.613-0.668,3.505-1.984,4.846-3.84c1.988-2.75,1.696-5.408-0.405-6.928
			c-1.948-1.406-3.865-1.098-6.979,0.934c-3.663,2.529-6.944,3.357-9.881,1.236c-3.246-2.346-3.714-6.777-0.788-10.828
			c1.542-2.133,3.153-3.32,4.349-3.869l1.659,2.328c-0.862,0.412-2.486,1.357-3.849,3.242c-2.056,2.844-1.137,5.154,0.285,6.184
			c1.947,1.406,3.822,0.832,7.013-1.24c3.906-2.541,6.902-3.105,9.963-0.893c3.215,2.322,4.277,6.713,0.726,11.629
			c-1.452,2.01-3.626,3.779-5.172,4.357L399.451,384.555z"/>
		<path fill="#3D3D3D" d="M394.631,353.02l21.999,13.307l-1.718,2.84l-21.999-13.307L394.631,353.02z"/>
		<path fill="#3D3D3D" d="M428.335,341.012c-0.159,1.574-0.634,4.604-2.131,7.734c-1.678,3.512-3.954,5.977-7.209,7.211
			c-2.882,1.076-6.572,0.836-10.187-0.893c-6.902-3.34-9.693-10.508-5.976-18.289c1.283-2.684,2.872-4.504,3.831-5.273l2.099,1.891
			c-1.144,0.977-2.331,2.312-3.449,4.652c-2.698,5.646-0.946,11.008,4.871,13.787c5.886,2.812,11.058,0.928,13.64-4.477
			c0.938-1.961,1.304-3.436,1.289-4.289l-6.92-3.307l-2.253,4.717l-2.41-1.15l3.651-7.643L428.335,341.012z"/>
		<path fill="#3D3D3D" d="M432.405,333.699l-24.539-7.674l1.082-3.457l14.873-3.982c3.445-0.922,6.475-1.533,9.351-1.914
			l-0.014-0.084c-3.367-0.732-6.376-1.594-10.198-2.789l-10.267-3.209l0.933-2.986l24.539,7.672l-1.002,3.205l-14.887,3.898
			c-3.266,0.857-6.582,1.619-9.626,2.025l0.002,0.121c3.151,0.785,6.123,1.635,10.201,2.91l10.485,3.277L432.405,333.699z"/>
	</g>
	<g>
		<path fill="#3D3D3D" d="M72.298,204.807l3.342,0.545l0.047-0.096l-3.061-1.543l-14.707-9.15l0.976-3.25l17.325,0.43l3.455,0.413
			l0.03-0.101l-3.146-1.44L61.6,182.306l1.082-3.603l22.734,13.285l-0.89,2.963l-18.475-0.205l-2.317-0.292l-0.03,0.101l2.1,1.016
			l15.513,10.072l-0.89,2.963l-26.287-1.45l1.077-3.586L72.298,204.807z"/>
		<path fill="#3D3D3D" d="M84.275,165.212l-4.489,9.505l8.281,3.911l5.254-11.126l2.448,1.155l-6.733,14.258l-23.143-10.93
			l6.651-14.082l2.464,1.163l-5.172,10.951l7.487,3.536l4.489-9.505L84.275,165.212z"/>
		<path fill="#3D3D3D" d="M97.834,164.966L76.25,151.214l4.487-7.042c1.436-2.253,3.046-3.707,4.832-4.362
			c1.786-0.654,3.652-0.361,5.599,0.879c0.929,0.592,1.58,1.409,1.95,2.451c0.371,1.043,0.447,2.161,0.228,3.355
			c1.099-1.287,2.424-2.017,3.978-2.187s3.027,0.188,4.42,1.076c1.977,1.259,3.077,2.863,3.301,4.812s-0.363,4.021-1.761,6.215
			L97.834,164.966z M87.287,154.14l3.013-4.729c0.692-1.088,0.957-2.162,0.793-3.226c-0.163-1.062-0.779-1.935-1.846-2.614
			c-1.166-0.743-2.273-0.931-3.32-0.562s-2.012,1.243-2.893,2.627l-2.626,4.121L87.287,154.14z M89.57,155.595l7.842,4.996
			l3.589-5.633c0.85-1.335,1.181-2.579,0.993-3.734s-0.885-2.116-2.091-2.885c-1.196-0.762-2.399-1-3.609-0.715
			c-1.209,0.285-2.246,1.049-3.107,2.293l-0.123,0.192L89.57,155.595z"/>
		<path fill="#3D3D3D" d="M110.454,145.84L90.965,129.25l5.219-6.13c2.165-2.543,4.689-3.922,7.574-4.138
			c2.884-0.215,5.566,0.733,8.047,2.846l2.664,2.268c2.49,2.119,3.854,4.616,4.093,7.489c0.239,2.874-0.724,5.583-2.889,8.126
			L110.454,145.84z M95.285,128.379l15.353,13.069l2.974-3.493c1.534-1.803,2.151-3.729,1.849-5.778s-1.381-3.865-3.237-5.445
			l-2.69-2.29c-1.838-1.565-3.793-2.333-5.865-2.304s-3.875,0.945-5.41,2.747L95.285,128.379z"/>
		<path fill="#3D3D3D" d="M129.091,109.399l-7.788,7.06l6.151,6.785l9.116-8.264l1.818,2.006l-11.682,10.59l-17.189-18.962
			l11.539-10.461l1.83,2.02l-8.973,8.134l5.561,6.134l7.788-7.06L129.091,109.399z"/>
		<path fill="#3D3D3D" d="M149.164,101.248c-0.668-0.948-1.568-1.504-2.701-1.666c-1.132-0.163-2.715,0.135-4.747,0.892
			c-2.498,0.972-4.705,1.365-6.62,1.18c-1.915-0.185-3.419-1.054-4.512-2.605c-1.154-1.638-1.474-3.455-0.959-5.452
			c0.514-1.996,1.796-3.717,3.847-5.161c2.204-1.552,4.4-2.163,6.588-1.834c2.188,0.329,3.851,1.341,4.987,3.034l0.018,0.117
			l-2.702,1.902c-0.837-1.188-1.943-1.878-3.318-2.07c-1.375-0.192-2.709,0.167-4.003,1.078c-1.322,0.932-2.109,1.966-2.361,3.104
			c-0.252,1.138-0.017,2.219,0.705,3.244c0.641,0.91,1.562,1.397,2.761,1.463s2.829-0.283,4.887-1.045
			c2.492-0.938,4.664-1.264,6.515-0.977c1.851,0.287,3.327,1.212,4.426,2.773c1.188,1.687,1.479,3.509,0.875,5.469
			s-1.976,3.692-4.112,5.197c-2.021,1.424-4.204,2.115-6.548,2.075c-2.343-0.041-4.16-1.026-5.448-2.957l-0.032-0.106l2.702-1.903
			c0.924,1.312,2.136,1.975,3.635,1.986c1.5,0.013,2.876-0.424,4.131-1.308c1.341-0.945,2.19-1.994,2.545-3.147
			C150.079,103.376,149.893,102.283,149.164,101.248z"/>
		<path fill="#3D3D3D" d="M163.599,100.131l-3.024,1.723l-12.67-22.237l3.024-1.724L163.599,100.131z"/>
		<path fill="#3D3D3D" d="M184.776,86.248c-0.175,1.114-0.791,2.339-1.848,3.676c-1.057,1.336-2.685,2.488-4.883,3.456
			c-2.703,1.19-5.333,1.28-7.892,0.269s-4.463-2.938-5.715-5.78l-2.125-4.826c-1.251-2.842-1.419-5.534-0.503-8.076
			s2.72-4.406,5.412-5.592c2.606-1.147,4.971-1.36,7.095-0.638c2.124,0.724,3.636,2.167,4.539,4.33l0.01,0.111l-3.041,1.339
			c-0.628-1.427-1.613-2.411-2.953-2.954c-1.341-0.543-2.858-0.441-4.552,0.305c-1.792,0.789-2.938,2.095-3.442,3.917
			c-0.503,1.823-0.302,3.764,0.605,5.822l2.14,4.858c0.916,2.081,2.25,3.539,4.001,4.375s3.527,0.856,5.329,0.063
			c1.383-0.609,2.401-1.272,3.052-1.988c0.652-0.716,1.067-1.408,1.247-2.076l-2.324-5.276L173.62,83.9l-1.091-2.478l8.478-3.733
			L184.776,86.248z"/>
		<path fill="#3D3D3D" d="M210.447,82.232l-3.339,0.918l-17.064-15.58l-0.092,0.062l5.173,18.812l-3.339,0.919L185,62.686
			l3.339-0.919l17.06,15.563l0.092-0.062l-5.169-18.797l3.339-0.918L210.447,82.232z"/>
		<path fill="#3D3D3D" d="M235.299,69.509l-10.329,0.932l-0.243-2.696l10.329-0.932L235.299,69.509z"/>
		<path fill="#3D3D3D" d="M265.859,73.201c0.089-1.156-0.252-2.158-1.021-3.005c-0.77-0.846-2.179-1.624-4.228-2.334
			c-2.545-0.841-4.497-1.942-5.855-3.305c-1.359-1.361-1.966-2.989-1.82-4.882c0.152-1.998,1.063-3.604,2.731-4.815
			s3.752-1.722,6.252-1.53c2.688,0.206,4.771,1.133,6.248,2.78c1.479,1.646,2.116,3.485,1.913,5.515l-0.061,0.102l-3.295-0.253
			c0.111-1.449-0.303-2.686-1.24-3.709c-0.938-1.024-2.196-1.597-3.773-1.718c-1.612-0.124-2.878,0.173-3.797,0.89
			c-0.919,0.718-1.427,1.701-1.522,2.951c-0.085,1.11,0.314,2.072,1.198,2.886c0.884,0.814,2.361,1.583,4.434,2.307
			c2.519,0.862,4.401,1.994,5.646,3.395c1.244,1.399,1.793,3.052,1.647,4.957c-0.158,2.057-1.094,3.647-2.809,4.773
			c-1.714,1.126-3.874,1.589-6.479,1.39c-2.465-0.189-4.589-1.045-6.37-2.569c-1.781-1.522-2.554-3.439-2.318-5.748l0.044-0.103
			l3.295,0.252c-0.123,1.602,0.39,2.884,1.538,3.847c1.148,0.964,2.488,1.505,4.019,1.622c1.636,0.125,2.958-0.144,3.967-0.807
			S265.763,74.463,265.859,73.201z"/>
		<path fill="#3D3D3D" d="M295.045,74.452c-0.661,3.059-2.158,5.391-4.489,6.996c-2.332,1.606-5.01,2.082-8.033,1.428
			c-2.921-0.631-5.077-2.152-6.468-4.563c-1.392-2.411-1.756-5.146-1.095-8.204l0.963-4.449c0.659-3.047,2.121-5.387,4.387-7.019
			c2.265-1.633,4.858-2.133,7.778-1.501c3.024,0.653,5.266,2.196,6.724,4.628s1.857,5.177,1.195,8.234L295.045,74.452z
			 M292.63,69.236c0.495-2.291,0.283-4.303-0.637-6.037c-0.92-1.733-2.422-2.826-4.507-3.276c-1.97-0.426-3.701-0.033-5.191,1.179
			c-1.491,1.213-2.484,2.964-2.98,5.255l-0.97,4.484c-0.5,2.313-0.322,4.33,0.535,6.051c0.856,1.72,2.271,2.793,4.24,3.219
			c2.097,0.453,3.918,0.083,5.465-1.111s2.572-2.953,3.075-5.278L292.63,69.236z"/>
		<path fill="#3D3D3D" d="M317.573,84.87l-0.004,0.111c-0.785,2.271-2.271,3.865-4.457,4.784c-2.187,0.918-4.616,0.886-7.288-0.098
			c-2.717-1-4.576-2.776-5.578-5.33s-0.958-5.311,0.131-8.269l1.572-4.272c1.089-2.959,2.843-5.088,5.264-6.389
			c2.42-1.301,4.988-1.451,7.705-0.452c2.717,1,4.611,2.519,5.685,4.556s1.149,4.24,0.228,6.61l-0.069,0.087l-3.118-1.147
			c0.619-1.683,0.614-3.195-0.016-4.538s-1.847-2.347-3.649-3.01c-1.815-0.668-3.53-0.469-5.146,0.597
			c-1.616,1.066-2.822,2.683-3.62,4.85l-1.584,4.306c-0.806,2.188-0.939,4.212-0.399,6.071c0.539,1.859,1.717,3.123,3.531,3.791
			c1.804,0.663,3.38,0.69,4.728,0.082c1.348-0.609,2.338-1.771,2.969-3.487L317.573,84.87z"/>
		<path fill="#3D3D3D" d="M322.468,96.461l-3.132-1.518l11.162-23.031l3.132,1.518L322.468,96.461z"/>
		<path fill="#3D3D3D" d="M343.406,100.804l-8.206-5.045l-5.399,4.418l-3.01-1.851l21.267-16.968l2.531,1.556l-5.709,26.534
			l-3.01-1.851L343.406,100.804z M337.573,93.813l6.514,4.006l2.58-11.312l-0.09-0.055L337.573,93.813z"/>
		<path fill="#3D3D3D" d="M352.318,111.931l9.735,7.81l-1.694,2.112l-12.436-9.978l16.017-19.963l2.7,2.167L352.318,111.931z"/>
		<path fill="#3D3D3D" d="M375.493,130.338l0.071,0.077l20.817-8.116l2.924,3.161l-18.792,17.376l-2.351-2.542l14.081-13.021
			l-0.06-0.089l-19.356,7.34l-1.635-1.768l9.141-19.321l-0.085-0.065l-14.545,13.449l-2.352-2.542l18.792-17.376l3.091,3.343
			L375.493,130.338z"/>
		<path fill="#3D3D3D" d="M401.575,152.653l-5.914-8.69l-7.571,5.152l6.923,10.173l-2.238,1.522l-8.87-13.035l21.158-14.399
			l8.763,12.876l-2.253,1.532l-6.813-10.013l-6.845,4.658l5.914,8.69L401.575,152.653z"/>
		<path fill="#3D3D3D" d="M394.925,164.41l22.848-11.533l3.628,7.187c1.505,2.981,1.798,5.844,0.878,8.585
			c-0.92,2.742-2.834,4.848-5.742,6.315l-3.123,1.576c-2.918,1.474-5.749,1.763-8.49,0.869c-2.742-0.894-4.865-2.831-6.37-5.812
			L394.925,164.41z M416.9,157.196l-17.999,9.085l2.067,4.096c1.067,2.113,2.604,3.428,4.61,3.944
			c2.006,0.517,4.098,0.226,6.273-0.873l3.154-1.592c2.155-1.088,3.621-2.593,4.397-4.514c0.775-1.921,0.631-3.938-0.437-6.051
			L416.9,157.196z"/>
		<path fill="#3D3D3D" d="M406.766,190.27l-1.24-3.252l23.915-9.118l1.24,3.252L406.766,190.27z"/>
		<path fill="#3D3D3D" d="M419.032,207.794l-2.511-9.3l-6.959-0.488l-0.921-3.411l27.114,2.238l0.774,2.868l-22.354,15.395
			l-0.921-3.411L419.032,207.794z M419.583,198.706l1.993,7.383l9.636-6.462l-0.028-0.102L419.583,198.706z"/>
	</g>
	<g>
		<path fill="#3D3D3D" d="M340.587,350.314c-0.512,0-1.023-0.195-1.414-0.586L153.721,164.276c-0.781-0.781-0.781-2.047,0-2.828
			c0.78-0.781,2.048-0.781,2.828,0L342.001,346.9c0.781,0.781,0.781,2.047,0,2.828C341.61,350.119,341.099,350.314,340.587,350.314z
			"/>
	</g>
	<g>
		<path fill="#3D3D3D" d="M155.134,350.314c-0.512,0-1.024-0.195-1.414-0.586c-0.781-0.781-0.781-2.047,0-2.828l185.453-185.453
			c0.781-0.781,2.047-0.781,2.828,0s0.781,2.047,0,2.828L156.548,349.729C156.158,350.119,155.646,350.314,155.134,350.314z"/>
	</g>
	<g>
		<path fill="#3D3D3D" d="M85.731,238.014H40.907c-0.829,0-1.5-0.672-1.5-1.5s0.671-1.5,1.5-1.5h44.824c0.829,0,1.5,0.672,1.5,1.5
			S86.56,238.014,85.731,238.014z"/>
	</g>
	<g>
		<path fill="#3D3D3D" d="M85.731,288.561H40.907c-0.829,0-1.5-0.672-1.5-1.5s0.671-1.5,1.5-1.5h44.824c0.829,0,1.5,0.672,1.5,1.5
			S86.56,288.561,85.731,288.561z"/>
	</g>
	<g>
		<path fill="#3D3D3D" d="M451,238.014h-44.824c-0.828,0-1.5-0.672-1.5-1.5s0.672-1.5,1.5-1.5H451c0.828,0,1.5,0.672,1.5,1.5
			S451.828,238.014,451,238.014z"/>
	</g>
	<g>
		<path fill="#3D3D3D" d="M451,288.561h-44.824c-0.828,0-1.5-0.672-1.5-1.5s0.672-1.5,1.5-1.5H451c0.828,0,1.5,0.672,1.5,1.5
			S451.828,288.561,451,288.561z"/>
	</g>
	<g>
		<path fill="#3D3D3D" d="M249.735,156.141c2.29,0,3.991-0.595,5.103-1.784c1.111-1.188,1.668-2.861,1.668-5.02
			c0-1.806-0.584-3.303-1.751-4.492c-1.167-1.188-2.796-1.783-4.888-1.783c-1.762,0-3.242,0.54-4.442,1.618
			c-1.201,1.079-1.8,2.455-1.8,4.129h-9.313l-0.066-0.198c-0.132-3.766,1.321-6.87,4.36-9.314c3.039-2.443,6.792-3.666,11.262-3.666
			c4.976,0,8.928,1.173,11.857,3.518c2.929,2.346,4.393,5.709,4.393,10.09c0,2.202-0.634,4.223-1.899,6.061
			c-1.266,1.839-3,3.286-5.201,4.344c2.51,0.946,4.447,2.384,5.812,4.31c1.365,1.927,2.048,4.256,2.048,6.985
			c0,4.404-1.591,7.866-4.772,10.388s-7.261,3.781-12.237,3.781c-4.382,0-8.213-1.189-11.494-3.567s-4.866-5.713-4.756-10.007
			l0.066-0.198h9.379c0,1.806,0.633,3.319,1.899,4.541c1.266,1.223,2.9,1.833,4.904,1.833c2.202,0,3.985-0.649,5.35-1.948
			s2.049-2.939,2.049-4.921c0-2.532-0.64-4.409-1.916-5.632c-1.277-1.222-3.149-1.833-5.615-1.833h-5.317v-7.232H249.735z"/>
	</g>
	<g>
		<path fill="#3D3D3D" d="M167.141,233.63c1.872,0,3.605,0.171,5.202,0.513c1.596,0.341,3.176,0.842,4.739,1.502l-1.717,7.068
			c-1.498-0.506-2.84-0.886-4.029-1.14c-1.189-0.253-2.565-0.38-4.128-0.38c-2.819,0-5.092,1.079-6.82,3.237
			c-1.729,2.158-2.593,5.163-2.593,9.017v1.552c1.277-1.255,2.802-2.229,4.574-2.923s3.749-1.04,5.929-1.04
			c4.117,0,7.332,1.459,9.644,4.376c2.312,2.918,3.468,6.721,3.468,11.411c0,4.821-1.498,8.741-4.492,11.758
			c-2.995,3.017-6.903,4.524-11.725,4.524c-5.021,0-9.111-1.718-12.27-5.152c-3.16-3.435-4.739-8.136-4.739-14.103v-10.073
			c0-6.099,1.789-10.981,5.367-14.648C157.128,235.463,161.658,233.63,167.141,233.63z M165.093,258.335
			c-1.74,0-3.22,0.28-4.442,0.842s-2.175,1.338-2.857,2.329v2.576c0,3.698,0.677,6.562,2.031,8.587s3.143,3.038,5.367,3.038
			c2.003,0,3.6-0.842,4.789-2.526s1.784-3.804,1.784-6.357c0-2.643-0.6-4.718-1.8-6.226
			C168.764,259.089,167.141,258.335,165.093,258.335z"/>
	</g>
	<g>
		<path fill="#3D3D3D" d="M349.281,265.007c0,5.637-1.481,10.062-4.442,13.276c-2.962,3.215-6.886,4.822-11.774,4.822
			c-4.933,0-8.885-1.607-11.857-4.822c-2.972-3.214-4.458-7.64-4.458-13.276v-13.244c0-5.615,1.48-10.041,4.442-13.277
			c2.961-3.236,6.896-4.855,11.807-4.855c4.889,0,8.824,1.619,11.808,4.855s4.476,7.662,4.476,13.277V265.007z M339.67,250.771
			c0-3.082-0.59-5.471-1.768-7.167c-1.178-1.695-2.812-2.543-4.904-2.543c-2.113,0-3.748,0.848-4.904,2.543
			c-1.156,1.696-1.734,4.085-1.734,7.167v15.16c0,3.148,0.584,5.564,1.751,7.249s2.818,2.526,4.954,2.526
			c2.092,0,3.716-0.842,4.871-2.526c1.156-1.685,1.734-4.101,1.734-7.249V250.771z"/>
	</g>
	<g id="g3015" transform="matrix(1,0,0,-1,37.966102,1447.8644)">
		<path id="path3017" inkscape:connector-curvature="0" fill="#3D3D3D" d="M247.259,1085.122v33.691
			c0,0.351-0.129,0.655-0.386,0.911c-0.256,0.257-0.561,0.385-0.911,0.385h-64.79c-0.351,0-0.654-0.128-0.911-0.385
			c-0.256-0.256-0.384-0.561-0.384-0.911v-33.691c0-0.35,0.128-0.654,0.384-0.91c0.257-0.256,0.56-0.386,0.911-0.386h64.79
			c0.351,0,0.655,0.13,0.911,0.386C247.13,1084.468,247.259,1084.773,247.259,1085.122z M252.442,1118.814v-44.058
			c0-1.781-0.636-3.307-1.904-4.576c-1.269-1.268-2.793-1.902-4.576-1.902h-22.028c0-0.999,0.217-2.045,0.648-3.139
			c0.431-1.093,0.864-2.052,1.297-2.875c0.431-0.822,0.646-1.41,0.646-1.761c0-0.702-0.257-1.311-0.769-1.822
			c-0.515-0.514-1.121-0.771-1.823-0.771h-20.732c-0.702,0-1.31,0.257-1.822,0.771c-0.513,0.512-0.769,1.12-0.769,1.822
			c0,0.378,0.215,0.971,0.647,1.781c0.432,0.81,0.864,1.756,1.295,2.835c0.433,1.08,0.648,2.133,0.648,3.158h-22.029
			c-1.782,0-3.307,0.635-4.576,1.902c-1.269,1.27-1.903,2.795-1.903,4.576v44.058c0,1.781,0.634,3.308,1.903,4.576
			c1.269,1.269,2.794,1.902,4.576,1.902h64.79c1.783,0,3.308-0.634,4.576-1.902S252.442,1120.595,252.442,1118.814z"/>
	</g>
</g>
<polygon fill="#3D3D3D" points="47.39,276.8 79.249,276.8 63.319,248.481 "/>
<polygon fill="#3D3D3D" points="444.517,250.051 412.659,250.051 428.588,278.37 "/>
</svg>
