<?xml version="1.0" encoding="utf-8"?>
<!-- Generator: Adobe Illustrator 16.0.0, SVG Export Plug-In . SVG Version: 6.00 Build 0)  -->
<!DOCTYPE svg PUBLIC "-//W3C//DTD SVG 1.1//EN" "http://www.w3.org/Graphics/SVG/1.1/DTD/svg11.dtd">
<svg version="1.1"
	 id="svg3037" xmlns:dc="http://purl.org/dc/elements/1.1/" xmlns:cc="http://creativecommons.org/ns#" xmlns:rdf="http://www.w3.org/1999/02/22-rdf-syntax-ns#" xmlns:svg="http://www.w3.org/2000/svg" xmlns:sodipodi="http://sodipodi.sourceforge.net/DTD/sodipodi-0.dtd" xmlns:inkscape="http://www.inkscape.org/namespaces/inkscape" sodipodi:docname="camera_font_awesome.svg" inkscape:version="0.48.3.1 r9886"
	 xmlns="http://www.w3.org/2000/svg" xmlns:xlink="http://www.w3.org/1999/xlink" x="0px" y="0px" width="30px" height="30px"
	 viewBox="33.5 57.5 30 30" enable-background="new 33.5 57.5 30 30" xml:space="preserve">
<sodipodi:namedview  inkscape:cy="896" inkscape:cx="960" inkscape:zoom="0.13169643" showgrid="false" guidetolerance="10" gridtolerance="10" objecttolerance="10" bordercolor="#666666" pagecolor="#ffffff" borderopacity="1" id="namedview3043" inkscape:current-layer="svg3037" inkscape:window-maximized="0" inkscape:window-y="25" inkscape:window-x="0" inkscape:window-height="480" inkscape:window-width="640" inkscape:pageopacity="0" inkscape:pageshadow="2">
	</sodipodi:namedview>
<g id="g3890" transform="matrix(1,0,0,-1,129.08475,1346.1695)">
	<path id="path3892" inkscape:connector-curvature="0" fill="#FFFFFF" d="M-89.466,1266.019c0,0.279-0.102,0.521-0.306,0.725
		c-0.204,0.204-0.445,0.306-0.724,0.306c-0.279,0-0.521-0.102-0.724-0.306c-0.204-0.204-0.306-0.445-0.306-0.725
		c0-0.278,0.102-0.52,0.306-0.724c0.204-0.204,0.445-0.306,0.724-0.306c0.279,0,0.52,0.102,0.724,0.306
		C-89.568,1265.5-89.466,1265.741-89.466,1266.019z M-70.93,1275.288c0,0.547-0.211,1.026-0.629,1.439s-0.895,0.619-1.432,0.619
		h-5.663c0,0.622,0.257,1.478,0.772,2.566c0.516,1.089,0.772,1.949,0.772,2.582c0,1.052-0.171,1.829-0.515,2.333
		s-1.03,0.756-2.06,0.756c-0.279-0.278-0.482-0.734-0.612-1.367c-0.128-0.633-0.292-1.306-0.49-2.02
		c-0.199-0.713-0.518-1.3-0.958-1.762c-0.236-0.246-0.649-0.734-1.239-1.464c-0.043-0.054-0.167-0.214-0.371-0.482
		c-0.204-0.269-0.373-0.488-0.507-0.659c-0.134-0.172-0.319-0.4-0.555-0.685c-0.236-0.284-0.451-0.52-0.644-0.707
		c-0.193-0.188-0.4-0.379-0.62-0.571c-0.22-0.193-0.434-0.338-0.644-0.435c-0.209-0.097-0.399-0.145-0.571-0.145h-0.515v-10.298
		h0.515c0.139,0,0.308-0.017,0.506-0.049c0.199-0.031,0.375-0.066,0.531-0.104c0.155-0.037,0.359-0.096,0.611-0.177
		c0.252-0.08,0.439-0.142,0.563-0.185s0.313-0.11,0.571-0.201c0.257-0.092,0.413-0.147,0.466-0.169
		c2.264-0.783,4.098-1.175,5.503-1.175h1.946c2.059,0,3.088,0.896,3.088,2.687c0,0.279-0.025,0.58-0.08,0.901
		c0.322,0.172,0.576,0.453,0.766,0.845c0.188,0.392,0.281,0.786,0.281,1.183c0,0.397-0.098,0.768-0.291,1.11
		c0.568,0.536,0.854,1.175,0.854,1.915c0,0.269-0.053,0.565-0.16,0.893s-0.242,0.582-0.402,0.765
		c0.344,0.011,0.629,0.263,0.859,0.756C-71.046,1274.477-70.93,1274.912-70.93,1275.288z M-68.872,1275.303
		c0-0.954-0.264-1.829-0.789-2.622c0.098-0.354,0.146-0.725,0.146-1.11c0-0.826-0.205-1.599-0.613-2.317
		c0.033-0.226,0.049-0.455,0.049-0.691c0-1.084-0.322-2.038-0.965-2.864c0.01-1.491-0.445-2.668-1.367-3.532
		c-0.924-0.863-2.141-1.295-3.652-1.295h-0.579h-1.496c-1.03,0-2.047,0.121-3.049,0.362c-1.003,0.241-2.165,0.593-3.483,1.054
		c-1.245,0.43-1.984,0.644-2.22,0.644h-4.634c-0.569,0-1.054,0.201-1.457,0.604c-0.402,0.402-0.603,0.888-0.603,1.456v10.298
		c0,0.568,0.201,1.054,0.603,1.456c0.402,0.401,0.888,0.603,1.457,0.603h4.408c0.386,0.258,1.121,1.089,2.204,2.494
		c0.622,0.805,1.196,1.49,1.722,2.06c0.257,0.268,0.448,0.727,0.571,1.375c0.123,0.649,0.287,1.327,0.491,2.035
		c0.204,0.708,0.537,1.287,0.998,1.738c0.418,0.396,0.901,0.596,1.448,0.596c0.901,0,1.711-0.175,2.429-0.523
		c0.719-0.349,1.267-0.893,1.643-1.633c0.375-0.74,0.562-1.738,0.562-2.993c0-0.997-0.258-2.027-0.772-3.089h2.831
		c1.115,0,2.082-0.407,2.896-1.223S-68.872,1276.408-68.872,1275.303z"/>
</g>
</svg>
