<?xml version="1.0" encoding="utf-8"?>
<!-- Generator: Adobe Illustrator 16.0.0, SVG Export Plug-In . SVG Version: 6.00 Build 0)  -->
<!DOCTYPE svg PUBLIC "-//W3C//DTD SVG 1.1//EN" "http://www.w3.org/Graphics/SVG/1.1/DTD/svg11.dtd">
<svg version="1.1" id="Ebene_1" xmlns="http://www.w3.org/2000/svg" xmlns:xlink="http://www.w3.org/1999/xlink" x="0px" y="0px"
	 width="300px" height="1333px" viewBox="0 0 300 1333" enable-background="new 0 0 300 1333" xml:space="preserve">
<g>
	<path fill="#FFFFFF" d="M150.15,119.765c0,0,0.175,17.908,0.479,49.247c0.098,15.669,0.217,34.697,0.352,56.522
		c0.158,21.825,0.189,46.449,0.254,73.311c0.031,13.431,0.062,27.421,0.099,41.902c-0.017,14.48-0.032,29.451-0.05,44.84
		c-0.016,7.695-0.028,15.495-0.045,23.391c-0.045,7.896-0.09,15.888-0.135,23.968c-0.097,16.159-0.193,32.668-0.295,49.457
		c-0.246,33.577-0.312,68.272-0.345,103.529c0.032,17.628,0.062,35.396,0.097,53.234c0.086,17.838,0.174,35.746,0.262,53.654
		c0.164,35.814,0.33,71.632,0.492,106.889c0.082,35.257,0.162,69.953,0.24,103.531c-0.009,33.577-0.018,66.035-0.022,96.813
		c0.01,30.779-0.112,59.88-0.222,86.742c-0.125,26.861-0.237,51.485-0.34,73.312c-0.146,21.823-0.271,40.853-0.377,56.521
		c-0.282,31.339-0.443,49.247-0.443,49.247h-0.3c0,0-0.161-17.908-0.442-49.247c-0.104-15.67-0.232-34.697-0.377-56.521
		c-0.102-21.825-0.215-46.449-0.339-73.312c-0.108-26.861-0.229-55.963-0.221-86.742c-0.008-30.778-0.016-63.236-0.023-96.813
		c0.077-33.578,0.157-68.274,0.238-103.531c0.163-35.257,0.328-71.072,0.493-106.889c0.087-17.908,0.174-35.816,0.261-53.654
		c0.032-17.838,0.064-35.606,0.097-53.234c-0.033-35.256-0.099-69.952-0.345-103.529c-0.101-16.789-0.198-33.3-0.295-49.457
		c-0.045-8.08-0.09-16.072-0.135-23.968c-0.015-7.896-0.029-15.696-0.043-23.391c-0.017-15.39-0.034-30.36-0.05-44.84
		c0.034-14.48,0.065-28.471,0.097-41.902c0.064-26.862,0.095-51.486,0.253-73.311c0.137-21.826,0.254-40.853,0.353-56.522
		c0.305-31.339,0.479-49.247,0.479-49.247H150.15L150.15,119.765z"/>
</g>
</svg>
