<?xml version="1.0" encoding="utf-8"?>
<!-- Generator: Adobe Illustrator 16.0.0, SVG Export Plug-In . SVG Version: 6.00 Build 0)  -->
<!DOCTYPE svg PUBLIC "-//W3C//DTD SVG 1.1//EN" "http://www.w3.org/Graphics/SVG/1.1/DTD/svg11.dtd">
<svg version="1.1" id="Ebene_1" xmlns="http://www.w3.org/2000/svg" xmlns:xlink="http://www.w3.org/1999/xlink" x="0px" y="0px"
	 width="1384px" height="458px" viewBox="0 0 1384 458" enable-background="new 0 0 1384 458" xml:space="preserve">
<g>
	<path fill="#FFFFFF" d="M43.162,199.447c0,0,4.953,1.291,14.293,3.502c9.337,2.223,23.053,5.396,40.582,9.094
		c17.529,3.688,38.847,8.026,63.405,12.418c24.562,4.369,52.329,8.991,82.739,13.208c7.609,1.002,15.367,2.103,23.292,3.081
		c7.929,0.939,15.997,1.979,24.221,2.884c4.113,0.443,8.261,0.892,12.442,1.343c4.183,0.444,8.391,0.972,12.646,1.349
		c4.252,0.405,8.537,0.815,12.854,1.229c4.316,0.398,8.659,0.867,13.044,1.187c17.524,1.456,35.546,2.743,53.984,3.747
		c18.439,0.957,37.3,1.652,56.485,1.832c38.365,0.453,78.068-1.01,118.142-5.299c2.506-0.262,5.014-0.521,7.523-0.781
		c2.5-0.338,5.004-0.674,7.509-1.012c5.009-0.684,10.026-1.365,15.054-2.053l3.771-0.514c1.256-0.186,2.503-0.423,3.756-0.63
		l7.512-1.293c5.012-0.861,10.029-1.726,15.052-2.591c4.981-1.064,9.97-2.133,14.961-3.2l7.487-1.605
		c1.246-0.278,2.503-0.509,3.739-0.829l3.709-0.959c9.9-2.56,19.812-5.122,29.725-7.683l14.871-3.837
		c4.994-1.147,10.023-2.167,15.032-3.255l7.519-1.608l3.758-0.803c1.258-0.242,2.521-0.446,3.778-0.671
		c5.04-0.879,10.075-1.758,15.106-2.636l7.544-1.316l7.572-1.059c5.049-0.703,10.09-1.404,15.122-2.105l3.773-0.525
		c1.26-0.164,2.523-0.279,3.783-0.42c2.522-0.271,5.043-0.542,7.562-0.812c5.037-0.541,10.064-1.081,15.084-1.62
		c5.024-0.464,10.052-0.81,15.062-1.204c5.013-0.366,10.009-0.801,15-1.108c4.995-0.25,9.979-0.5,14.945-0.749
		c2.484-0.125,4.967-0.249,7.443-0.373l3.714-0.186l3.71-0.101c4.943-0.129,9.874-0.258,14.787-0.387
		c4.913-0.124,9.811-0.294,14.689-0.269c4.881-0.02,9.742-0.04,14.588-0.06c2.422-0.01,4.841-0.02,7.253-0.03
		c2.412,0.034,4.818,0.068,7.223,0.103c38.442,0.418,75.562,2.567,110.669,5.454c35.112,2.882,68.205,6.746,98.659,10.906
		c30.457,4.159,58.284,8.603,82.866,12.992c24.583,4.391,45.944,8.582,63.48,12.305c35.073,7.434,54.911,12.568,54.911,12.568
		l-0.072,0.291c0,0-19.908-4.821-55.076-11.697c-17.584-3.424-38.962-7.457-63.573-11.553c-24.614-4.071-52.437-8.362-82.884-12.312
		c-30.445-3.94-63.515-7.556-98.562-10.453c-35.053-2.881-72.104-4.812-110.459-5.396c-38.347-0.555-78.02,0.388-118.139,3.875
		c-40.113,3.501-80.66,9.544-120.338,19.641c-9.939,2.479-19.879,4.956-29.809,7.432l-3.727,0.931
		c-1.242,0.312-2.504,0.53-3.754,0.8l-7.518,1.544c-5.01,1.028-10.015,2.058-15.015,3.083c-5.032,0.85-10.062,1.698-15.082,2.546
		l-7.526,1.271c-1.255,0.205-2.505,0.438-3.763,0.619l-3.776,0.502c-5.033,0.67-10.061,1.341-15.077,2.009
		c-2.51,0.329-5.019,0.657-7.521,0.987c-2.513,0.252-5.023,0.506-7.532,0.758c-40.111,4.358-79.833,5.953-118.252,5.992
		c-19.213,0.027-38.104-0.477-56.582-1.244c-4.622-0.142-9.214-0.401-13.777-0.666c-4.565-0.258-9.104-0.514-13.616-0.769
		c-4.514-0.235-8.988-0.612-13.438-0.948c-4.45-0.34-8.87-0.679-13.262-1.014c-4.394-0.305-8.743-0.76-13.068-1.146
		c-4.323-0.397-8.615-0.795-12.876-1.188c-8.519-0.812-16.891-1.773-25.126-2.681c-8.233-0.938-16.308-2.015-24.245-2.985
		c-7.931-1.013-15.694-2.146-23.31-3.181c-30.432-4.349-58.223-9.037-82.751-13.722c-24.533-4.667-45.842-9.134-63.32-13.118
		c-34.967-7.936-54.683-13.536-54.685-13.535L43.162,199.447z"/>
</g>
</svg>
